<svg xmlns="http://www.w3.org/2000/svg" version="1.1" xmlns:xlink="http://www.w3.org/1999/xlink" xmlns:svgjs="http://svgjs.dev/svgjs" width="100%" height="100%" viewBox="0 0 1000 600"><rect width="1000" height="600" x="0" y="0" fill="sky blue"/><g><circle r="166.66666666666666" cx="369.62233988444007" cy="391.8445429494778" fill="#ec8b5e" transform="matrix(0.615898048824155,0,0,0.615898048824155,0,58.66369911093203)"/><path d="M345.5357961899194 399.9214670980619L345.5357961899194 466.8445440211388L327.9973346514579 466.8445440211388L327.9973346514579 316.8445440211388L411.24733465145783 316.8445440211388L410.526180805304 332.3637747903696L345.5357961899194 332.3637747903696L345.5357961899194 385.00800555960035L407.49733465145783 385.00800555960035L407.49733465145783 399.9214670980619L345.5357961899194 399.9214670980619Z " fill="#141a46" transform="matrix(0.615898048824155,0,0,0.615898048824155,0,58.66369911093203)"/><path d="M681.7290745965408 333.6142068919199L681.7290745965408 464.5692593297185L664.5380638518105 464.5692593297185L664.5380638518105 333.6142068919199L619.6223347981769 333.6142068919199L619.6223347981769 318.50184777318634L726.6728935370123 318.50184777318634L726.6728935370123 333.6142068919199L681.7290745965408 333.6142068919199ZM749.285252441437 410.6366766011528L749.285252441437 410.6366766011528Q749.285252441437 429.9063389718799 757.8245780401267 441.50746223588914Q766.3639036388162 453.1085854998983 782.7403076652504 453.1085854998983L782.7403076652504 453.1085854998983Q798.948172370658 453.1085854998983 807.2065991009696 441.5636420095647Q815.4369359444433 430.0186985192311 815.4369359444433 410.44004739328824L815.4369359444433 410.44004739328824Q815.4369359444433 390.6085872858052 807.2908687614829 379.2040932296606Q799.1448015785224 367.79959917351596 782.4594087968725 367.79959917351596L782.4594087968725 367.79959917351596Q766.251544091465 367.79959917351596 757.768398266451 379.4569022112007Q749.285252441437 391.08611536204774 749.285252441437 410.6366766011528ZM832.5155871418226 410.3557777327748L832.5155871418226 410.3557777327748Q832.5155871418226 435.5243163394388 819.0886212333567 451.1984731949282Q805.6616553248908 466.8445401635799 781.9537908337921 466.8445401635799L781.9537908337921 466.8445401635799Q759.144802721503 466.8445401635799 745.6616570393614 451.0299338739015Q732.17851135722 435.2434174710609 732.17851135722 410.44004739328824L732.17851135722 410.44004739328824Q732.17851135722 385.15914923927306 745.7178368130371 369.56926204429703Q759.2571622688541 353.95128496248316 782.8526672126015 353.95128496248316L782.8526672126015 353.95128496248316Q806.05491374062 353.95128496248316 819.2852504412213 369.6254418179726Q832.5155871418226 385.2715087866242 832.5155871418226 410.3557777327748ZM960.7178306695173 391.872632193506L960.7178306695173 391.872632193506Q960.7178306695173 361.2827454271476 944.9032243798389 347.35016155560146Q929.1167079769983 333.4175776840553 898.8919897395313 333.4175776840553L898.8919897395313 333.4175776840553L875.9706420798909 333.4175776840553L875.9706420798909 449.6535294188496L901.7571581969864 449.6535294188496Q930.5773820925638 449.6535294188496 945.6335614376217 435.1029680368719Q960.7178306695173 420.5243167680565 960.7178306695173 391.872632193506ZM978.9762571140839 391.39510411726343L978.9762571140839 391.39510411726343Q978.9762571140839 427.0411705144249 958.7234487040339 445.8052149220717Q938.4987301808218 464.5692593297185 902.2346862732288 464.5692593297185L902.2346862732288 464.5692593297185L858.8919908825118 464.5692593297185L858.8919908825118 318.50184777318634L899.3695178157739 318.50184777318634Q917.6560341471782 318.50184777318634 932.0661460949668 322.79960045936895Q946.4762580427555 327.0973531455515 957.0942352674418 335.83330795210566Q967.7122124921282 344.59735264549755 973.3582797465249 358.6422960643949Q978.9762571140839 372.71532937013 978.9762571140839 391.39510411726343ZM1016.1953571741618 410.6366766011528L1016.1953571741618 410.6366766011528Q1016.1953571741618 429.9063389718799 1024.7346827728516 441.50746223588914Q1033.302098258379 453.1085854998983 1049.678502284813 453.1085854998983L1049.678502284813 453.1085854998983Q1065.8863669902207 453.1085854998983 1074.1167038336944 441.5636420095647Q1082.3751305640062 430.0186985192311 1082.3751305640062 410.44004739328824L1082.3751305640062 410.44004739328824Q1082.3751305640062 390.6085872858052 1074.2290633810458 379.2040932296606Q1066.0829961980853 367.79959917351596 1049.3976034164352 367.79959917351596L1049.3976034164352 367.79959917351596Q1033.1897387110275 367.79959917351596 1024.7065928860138 379.4569022112007Q1016.1953571741618 391.08611536204774 1016.1953571741618 410.6366766011528ZM1099.453781761385 410.3557777327748L1099.453781761385 410.3557777327748Q1099.453781761385 435.5243163394388 1086.0268158529193 451.1984731949282Q1072.5998499444536 466.8445401635799 1048.8919854533547 466.8445401635799L1048.8919854533547 466.8445401635799Q1026.0829973410655 466.8445401635799 1012.5998516589241 451.0299338739015Q999.1167059767827 435.2434174710609 999.1167059767827 410.44004739328824L999.1167059767827 410.44004739328824Q999.1167059767827 385.15914923927306 1012.6560314325995 369.56926204429703Q1026.1672670015791 353.95128496248316 1049.7908618321644 353.95128496248316L1049.7908618321644 353.95128496248316Q1072.9931083601828 353.95128496248316 1086.223445060784 369.6254418179726Q1099.453781761385 385.2715087866242 1099.453781761385 410.3557777327748ZM1206.7009697080853 464.5692593297185L1125.8301855020745 464.5692593297185L1125.8301855020745 318.50184777318634L1142.993106359967 318.50184777318634L1142.993106359967 449.3726305504716L1207.290857331679 449.3726305504716L1206.7009697080853 464.5692593297185ZM1226.4481601550547 356.2265657963446L1243.0492832761915 356.2265657963446L1243.0492832761915 464.5692593297185L1226.4481601550547 464.5692593297185L1226.4481601550547 356.2265657963446ZM1226.4481601550547 316.8445444497565L1243.0492832761915 316.8445444497565L1243.0492832761915 336.3951056888615L1226.4481601550547 336.3951056888615L1226.4481601550547 316.8445444497565ZM1306.335798321743 466.8445401635799L1306.335798321743 466.8445401635799Q1295.2964727944895 466.8445401635799 1285.9425404775038 464.4568997823673Q1276.6166980473558 462.0973492879926 1270.8020914719327 458.3613943385659L1270.8020914719327 458.3613943385659L1272.8526532110918 444.42881046701973Q1289.369506671715 453.2209450472495 1305.2683826219068 453.2209450472495L1305.2683826219068 453.2209450472495Q1329.3414156418967 453.2209450472495 1330.0436628128414 436.2265635103837L1330.0436628128414 436.2265635103837Q1330.0436628128414 429.0074625930705 1324.9032135215252 424.8782492279147Q1319.7627642302086 420.7209459759211 1304.7627646588262 415.58049668460467L1304.7627646588262 415.58049668460467L1296.5605177021903 412.7153282271496Q1282.3470349622662 407.9962272384001 1276.2796194053026 400.9737555289514Q1270.212203848339 393.95128381950275 1270.0998443009876 383.50184591584315L1270.0998443009876 383.50184591584315Q1270.0998443009876 370.7490372914844 1280.3245631099448 362.3501611269838Q1290.5492819189021 353.95128496248316 1308.330180287226 353.95128496248316L1308.330180287226 353.95128496248316Q1326.672876392306 353.95128496248316 1341.7852355110394 361.08611621928304L1341.7852355110394 361.08611621928304L1336.9537749749388 373.72656529629063Q1321.6447866483409 367.40634075778684 1308.330180287226 367.40634075778684L1308.330180287226 367.40634075778684Q1297.936922157242 367.40634075778684 1292.066135808143 371.50746423610485Q1286.1953494590439 375.5804978275851 1286.1953494590439 382.99622795276287L1286.1953494590439 382.99622795276287Q1286.1953494590439 389.31645249126666 1290.4369223715512 392.687238911802Q1294.678495284058 396.0299354454996 1307.4313039084168 400.38386790535776L1307.4313039084168 400.38386790535776Q1310.6897307816012 401.5636431525451 1315.6335508650527 403.1366768154616L1315.6335508650527 403.1366768154616Q1332.0099548914873 408.4737553146426 1338.835797393071 415.74903600563147Q1345.6335500078176 422.9962268097824 1345.6335500078176 435.3276871315743L1345.6335500078176 435.3276871315743Q1345.436920799953 450.3557765897944 1334.875123348942 458.5861134332683Q1324.3133258979315 466.8445401635799 1306.335798321743 466.8445401635799ZM1402.740289949054 466.53555140836414L1402.740289949054 466.53555140836414Q1386.7290544515108 466.53555140836414 1380.015571497278 458.754652754295Q1373.302088543045 450.9456642133881 1372.908830127316 433.5580242607932L1372.908830127316 433.5580242607932L1372.908830127316 368.47375645762304L1356.8133249692596 368.47375645762304L1357.487482253367 357.6310601382343L1372.796470579965 356.2265657963446L1378.4425378343617 331.4512856054097L1389.2852341537505 331.05802718968056L1389.2852341537505 356.2265657963446L1419.425682730704 356.2265657963446L1419.425682730704 368.47375645762304L1389.2852341537505 368.47375645762304L1389.2852341537505 430.6085861428248Q1389.2852341537505 442.9400464646166 1393.049278990015 447.9681362085819Q1396.8133238262794 453.0243158393849 1405.886357274887 453.0243158393849L1405.886357274887 453.0243158393849Q1409.1447841480713 453.0243158393849 1420.0155703542978 451.4231922896306L1420.0155703542978 451.4231922896306L1420.6897276384047 464.4568997823673Q1408.9481549402067 466.53555140836414 1402.740289949054 466.53555140836414Z " fill="#ec8b5e" transform="matrix(0.615898048824155,0,0,0.615898048824155,0,58.66369911093203)"/></g></svg>